<svg width="512" height="512" viewBox="0 0 512 512" xmlns="http://www.w3.org/2000/svg">
  <rect width="512" height="512" rx="115" fill="#8033CC"/>
  <g transform="translate(77, 88) scale(0.299)">
    <path d="M558.724 785.079C558.352 826.059 558.859 867.395 558.595 908.532C558.309 953.186 562.219 993.004 542.084 1034.3C501.53 1117.49 397.891 1149.42 315.831 1104.86C261.554 1075.39 228.682 1017.1 230.798 955.569C188.414 957.263 146.251 941.308 114.995 913.389C67.3929 870.863 48.8024 806.409 67.6431 745.126C71.8744 731.369 78.45 718.697 85.6689 706.308C38.4028 679.801 5.68173 632.126 0.657067 577.955C-3.96019 528.188 15.9812 475.45 53.4053 442.212C63.1187 433.582 74.3617 427.122 85.0042 419.754C80.9302 409.472 74.7119 400.288 70.8523 389.885C42.534 313.639 75.3194 228.501 146.444 190.051C172.318 176.06 201.093 168.841 230.741 169.799C231.692 155.68 231.977 141.66 235.137 127.712C261.325 12.1086 401.751 -39.7008 496.391 34.6945C532.178 62.8258 553.199 104.019 558.145 148.936V548.519L424.48 290.926C382.16 230.685 278.1 248.427 270.123 325.51C268.973 488.71 268.808 652.237 270.195 815.43C283.875 892.193 397.327 888.527 401.651 807.033C403.345 709.449 399.235 611.497 401.651 514.083C401.737 510.729 401.515 506.453 400.915 503.148C402.873 502.758 402.144 503.638 402.652 504.581C443.085 579.77 479.101 657.413 519.441 732.667C525.481 742.871 535.473 753.005 545.772 759.018C548.81 760.791 556.622 762.634 558.774 764.166" fill="white"/>
    <path d="M641.276 785.081C641.648 826.062 641.14 867.397 641.405 908.534C641.691 953.188 637.781 993.006 657.916 1034.31C698.47 1117.49 802.108 1149.42 884.168 1104.86C938.446 1075.39 971.317 1017.1 969.202 955.571C1011.59 957.266 1053.75 941.31 1085 913.391C1132.61 870.865 1151.2 806.412 1132.36 745.128C1128.13 731.371 1121.55 718.699 1114.33 706.31C1161.6 679.803 1194.32 632.128 1199.34 577.957C1203.96 528.19 1184.02 475.452 1146.59 442.215C1136.88 433.584 1125.64 427.124 1115 419.756C1119.07 409.474 1125.29 400.291 1129.15 389.888C1157.47 313.642 1124.68 228.503 1053.56 190.054C1027.68 176.063 998.907 168.844 969.259 169.801C968.308 155.682 968.022 141.662 964.863 127.714C938.668 12.1179 798.242 -39.6914 703.609 34.7038C667.822 62.8352 646.801 104.029 641.855 148.945V548.528L775.52 290.935C817.84 230.694 921.9 248.437 929.876 325.52C931.027 488.72 931.192 652.246 929.805 815.439C916.125 892.203 802.673 888.536 798.349 807.043C796.655 709.459 800.765 611.506 798.349 514.092C798.263 510.738 798.485 506.462 799.085 503.158C797.127 502.768 797.856 503.647 797.348 504.59C756.915 579.779 720.899 657.423 680.559 732.676C674.519 742.88 664.527 753.014 654.227 759.027C651.19 760.8 643.378 762.644 641.226 764.175" fill="white"/>
  </g>
</svg>
