<svg width="24" height="24" viewBox="0 0 24 24" fill="none" xmlns="http://www.w3.org/2000/svg">
<path d="M4.2158 2.7738C4.68239 0.714949 7.18407 -0.207371 8.87037 1.11765C9.50748 1.61849 9.88209 2.35183 9.97054 3.15261V10.2351L7.61156 5.68833L7.6109 5.68712L7.6101 5.68598L7.59182 5.66048C7.2039 5.13145 6.54933 4.94641 5.97179 5.06332C5.38457 5.18233 4.87348 5.61445 4.8008 6.31731L4.8007 6.31827V6.31934C4.78003 9.25046 4.77708 12.1866 4.80192 15.1176V15.1193L4.80226 15.1211C4.92727 15.8225 5.50895 16.1564 6.06783 16.1288C6.62717 16.1013 7.16634 15.7115 7.20585 14.9669L7.20589 14.9665V14.9661C7.22113 14.0885 7.21026 13.2086 7.20103 12.3294C7.19178 11.45 7.18415 10.5715 7.20589 9.69631C7.20689 9.65731 7.20555 9.61148 7.20165 9.56748C7.55788 10.2314 7.89531 10.9055 8.23258 11.5801C8.57534 12.2656 8.91809 12.9516 9.28017 13.6269L9.28036 13.6273L9.28059 13.6276C9.39076 13.8137 9.57266 13.9981 9.7608 14.108C9.79043 14.1253 9.84181 14.1424 9.88743 14.1578C9.91085 14.1657 9.93331 14.1732 9.95227 14.1805C9.96556 14.1856 9.97611 14.1903 9.98381 14.1943C9.97734 14.9305 9.98549 16.0426 9.98076 16.7775C9.97557 17.584 10.0454 18.2944 9.68577 19.032C8.96123 20.5185 7.10938 21.0896 5.64276 20.2934C4.67286 19.7669 4.08557 18.7255 4.12338 17.6263L4.12416 17.6037L4.10146 17.6046C3.3442 17.6348 2.59053 17.3496 2.03194 16.8507C1.18114 16.0908 0.849076 14.9395 1.18565 13.8446C1.26109 13.5995 1.37851 13.3733 1.50813 13.1509L1.51893 13.1324L1.50022 13.1219C0.655001 12.6479 0.0704883 11.7961 -0.0193528 10.8293C-0.101911 9.9408 0.254745 8.99913 0.922968 8.40595C1.09645 8.25183 1.29596 8.13752 1.48938 8.00361L1.50317 7.99404L1.49699 7.97851C1.45985 7.88483 1.41296 7.79631 1.36728 7.70888C1.32715 7.63194 1.28787 7.55567 1.25576 7.47604L1.24246 7.44175C0.736862 6.08101 1.32219 4.5616 2.59199 3.87517C3.05402 3.62529 3.56765 3.49649 4.09662 3.51357L4.11695 3.51423L4.11831 3.4939C4.13549 3.23863 4.14054 2.98893 4.19684 2.74065L4.2158 2.7738Z" stroke="currentColor" stroke-width="0.9"/>
<path d="M19.6004 2.7738C19.1338 0.714949 16.6322 -0.207371 14.9458 1.11765C14.3087 1.61849 13.9341 2.35183 13.8456 3.15261V10.2351L16.2046 5.68833L16.2053 5.68712L16.2061 5.68598L16.2244 5.66048C16.6123 5.13145 17.2669 4.94641 17.8444 5.06332C18.4316 5.18233 18.9427 5.61445 19.0154 6.31731L19.0155 6.31827V6.31934C19.0361 9.25046 19.0391 12.1866 19.0142 15.1176V15.1193L19.0139 15.1211C18.8889 15.8225 18.3072 16.1564 17.7484 16.1288C17.189 16.1013 16.6498 15.7115 16.6103 14.9669L16.6103 14.9665V14.9661C16.5951 14.0885 16.6059 13.2086 16.6152 12.3294C16.6245 11.45 16.6321 10.5715 16.6103 9.69631C16.6093 9.65731 16.6106 9.61148 16.6145 9.56748C16.2583 10.2314 15.9209 10.9055 15.5836 11.5801C15.2409 12.2656 14.8981 12.9516 14.536 13.6269L14.5358 13.6273L14.5356 13.6276C14.4254 13.8137 14.2435 13.9981 14.0554 14.108C14.0257 14.1253 13.9744 14.1424 13.9287 14.1578C13.9053 14.1657 13.8829 14.1732 13.8639 14.1805C13.8507 14.1856 13.8401 14.1903 13.8324 14.1943C13.8389 14.9305 13.8307 16.0426 13.8355 16.7775C13.8407 17.584 13.7708 18.2944 14.1305 19.032C14.855 20.5185 16.7068 21.0896 18.1735 20.2934C19.1434 19.7669 19.7307 18.7255 19.6929 17.6263L19.6921 17.6037L19.7148 17.6046C20.472 17.6348 21.2257 17.3496 21.7843 16.8507C22.6351 16.0908 22.9671 14.9395 22.6306 13.8446C22.5552 13.5995 22.4378 13.3733 22.3082 13.1509L22.2973 13.1324L22.316 13.1219C23.1612 12.6479 23.7458 11.7961 23.8356 10.8293C23.9182 9.9408 23.5616 8.99913 22.8933 8.40595C22.7198 8.25183 22.5203 8.13752 22.3269 8.00361L22.3131 7.99404L22.3193 7.97851C22.3564 7.88483 22.4033 7.79631 22.449 7.70888C22.4891 7.63194 22.5284 7.55567 22.5605 7.47604L22.5738 7.44175C23.0794 6.08101 22.4941 4.5616 21.2243 3.87517C20.7623 3.62529 20.2487 3.49649 19.7197 3.51357L19.6993 3.51423L19.698 3.4939C19.6808 3.23863 19.6757 2.98893 19.6194 2.74065L19.6004 2.7738Z" stroke="currentColor" stroke-width="0.9"/>
</svg>
